PathFileType	4	(X/Y/Z)	C:\Users\WrightLab\Desktop\Jo\P5V16.trc
DataRate	CameraRate	NumFrames	NumMarkers	Units	OrigDataRate	OrigDataStartFrame	OrigNumFrames
100.00	100.00	       48	19	mm	100.00	672	       767
Frame#	Time	Headset_Front			Headset_Back			Headset_Left			Headset_Right			Left_Shoulder			Right_Shoulder			Sternum			C7			Left Elbow			Right Elbow			Left Wrist			Right Wrist			Left ASIS			Right ASIS			S2			Left Knee			Right Knee			Left Ankle			Right Ankle			
		X1	Y1	Z1	X2	Y2	Z2	X3	Y3	Z3	X4	Y4	Z4	X5	Y5	Z5	X6	Y6	Z6	X7	Y7	Z7	X8	Y8	Z8	X9	Y9	Z9	X10	Y10	Z10	X11	Y11	Z11	X12	Y12	Z12	X13	Y13	Z13	X14	Y14	Z14	X15	Y15	Z15	X16	Y16	Z16	X17	Y17	Z17	X18	Y18	Z18	X19	Y19	Z19	

672	6.710																-84.10468	1568.01978	2034.39563																			-335.50992	990.86914	1934.19946							-332.04309	544.31531	2054.52832	-33.76373	540.73541	1804.83313				145.40089	188.06355	1891.59265	
673	6.720																-88.72942	1569.08105	2038.76038																			-338.07059	991.48236	1932.46167							-334.37643	543.88599	2051.30298	-33.15398	542.62354	1808.98706				142.67450	188.15999	1905.80920	
674	6.730																-93.23365	1569.12085	2040.80298																			-339.98172	991.70483	1929.71729							-335.09009	543.21454	2044.02637	-33.03532	543.26599	1815.37915				139.43744	188.13408	1919.93176	
675	6.740																-97.68114	1570.00867	2044.69019																			-341.97958	991.58472	1928.43164							-336.25421	542.45508	2039.31177	-32.48852	544.35693	1819.29749				135.11192	188.92686	1934.21948	
676	6.750																-101.71061	1570.71338	2046.94934																												-337.55627	541.22638	2032.77490	-31.84029	545.56146	1825.34790				129.19310	189.45241	1947.95251	
677	6.760																-105.59087	1571.06165	2049.50781																												-338.32874	540.00214	2028.42383	-30.84521	546.51642	1831.39514				122.59500	188.68832	1960.32178	
678	6.770																-110.17245	1571.46228	2052.98462																												-339.27841	538.78754	2023.22070	-29.36113	546.82446	1838.71509				116.80103	187.81795	1973.10352	
679	6.780																-113.70570	1572.09326	2055.87500																												-340.11826	539.30255	2017.30090	-27.33303	547.13275	1844.13123				110.19859	187.36241	1986.93335	
680	6.790																-117.20915	1571.49597	2057.20093																												-340.89484	538.73010	2013.33960	-25.70189	548.54974	1850.44983				102.07673	185.60538	1998.79785	
681	6.800																-120.76363	1572.18640	2060.67065																												-341.52237	538.52362	2009.75806	-22.51153	548.02899	1856.94702				94.32349	184.02303	2008.95007	
682	6.810																-124.51833	1572.89746	2063.11206																												-342.13980	539.06763	2007.40540	-19.48495	549.76349	1864.44836				86.33203	182.88367	2018.20837	
683	6.820																-127.55543	1572.94995	2065.57373																												-343.58881	539.49579	2002.46484	-14.07195	550.02667	1867.57397				79.16287	181.07388	2028.12183	
684	6.830																-129.99834	1572.55212	2066.69019																												-344.32166	539.35645	2002.10059	-10.75994	549.80170	1873.31262				72.41568	179.02087	2037.59314	
685	6.840																-133.23250	1573.05322	2069.00391																												-345.45386	539.86035	1999.28064	-7.85708	549.45966	1879.25464				65.82249	176.93379	2046.90991	
686	6.850																-135.98160	1573.09827	2071.37842																												-346.82245	540.30225	1996.91907	-4.93286	549.08807	1888.15747				58.54450	175.19536	2053.36914	
687	6.860																-138.22026	1572.61609	2073.20630																												-347.72974	540.07928	1997.41528	-2.46131	548.67993	1893.75549				52.14602	173.77374	2060.27661	
688	6.870																-140.41724	1572.79285	2074.09351																												-348.39120	539.48572	1996.99341	-0.06302	548.84680	1900.14661				46.00727	171.06557	2067.57739	
689	6.880																-142.10608	1572.78857	2075.32813																												-349.81595	540.11670	1993.40576	1.99939	548.21564	1907.01904				39.90413	168.43690	2070.96924	
690	6.890																-144.29201	1573.05994	2077.73364																												-350.54416	539.17108	1992.87634	4.00009	547.73096	1912.61145				33.35950	167.53593	2079.34985	
691	6.900																-145.54025	1572.56018	2078.51245																												-351.38440	538.68048	1993.57361	6.27891	546.58246	1918.51868				26.69870	164.81750	2082.10620	
692	6.910																-146.97646	1572.54370	2080.24609																												-352.01306	538.08160	1992.98901	8.15312	546.53473	1925.31921				23.32665	161.74480	2084.62012	
693	6.920																-148.36525	1572.86438	2081.49756																												-352.88126	538.47174	1992.07800	10.21099	545.62012	1930.83276				19.87883	158.96162	2086.42261	
694	6.930																-149.58905	1572.64832	2082.96216																												-353.29352	538.30859	1992.45178	11.58444	545.20142	1934.95313				19.11662	158.57874	2087.19458	
695	6.940																-149.96452	1572.08960	2083.03906																												-353.61484	538.26233	1992.75708	13.93749	544.32806	1941.44861				19.32569	158.00444	2087.70752	
696	6.950																-151.09514	1572.31921	2084.70508																												-353.89270	538.20978	1992.99292	14.81559	543.93207	1945.14673				21.29425	155.74515	2088.11255	
697	6.960																-151.87135	1573.01782	2085.77515																												-354.64185	539.26862	1993.07751	16.06971	543.82739	1949.45435				22.12598	155.47745	2088.12036	
698	6.970																-152.19734	1573.27917	2086.19849																												-354.36545	538.60748	1993.12756	17.50893	543.96576	1954.30005				22.66913	155.49211	2088.03003	
699	6.980																-152.65453	1573.46558	2087.05396																												-354.39630	539.05219	1992.77502	17.56759	544.29364	1957.02124				24.01586	154.75835	2087.75195	
700	6.990																-153.42908	1574.52991	2088.54932																												-354.80258	540.15466	1991.01672	18.36161	544.63995	1959.09839				25.44685	153.67223	2087.38135	
701	7.000																-153.78432	1575.28638	2089.50513																												-354.71201	540.47174	1990.69128	18.39798	544.82849	1960.64746				26.01958	153.84036	2086.87793	
702	7.010																-153.63918	1575.51428	2089.84082																												-354.41104	540.82574	1990.15588	18.35928	545.22015	1963.39172				26.26955	153.86856	2086.74512	
703	7.020																-153.48584	1576.18677	2090.10791																												-353.69138	541.53448	1987.48096	18.02790	545.48944	1963.79199				26.20644	153.75687	2086.88110	
704	7.030																-153.88489	1576.96057	2091.26660																												-353.22311	542.94629	1986.18359	17.31148	546.18896	1965.57910				25.58198	153.25226	2087.84595	
705	7.040																-153.97748	1577.55017	2092.20288																												-352.54486	543.66449	1986.16052	16.46492	546.40070	1966.13843				25.31483	153.07144	2088.18896	
706	7.050																-153.89137	1577.95178	2092.81177																												-351.60342	544.26880	1984.67383	15.88934	546.46362	1968.20935				24.77740	152.51270	2089.16724	
707	7.060																-154.34494	1578.59253	2094.50098																												-350.86707	545.46295	1982.95166	15.06671	546.61743	1970.43396				24.73221	152.43852	2089.25317	
708	7.070																-154.44196	1578.96802	2095.61084																												-350.15323	545.74268	1980.73682	13.90984	546.34991	1972.14734				24.71896	152.41531	2089.28125	
709	7.080																-154.18466	1579.01013	2096.17188																												-349.54056	546.18677	1979.85388	13.32792	545.72363	1973.59814				24.95618	151.37242	2088.61841	
710	7.090																-153.97261	1579.06250	2096.85449																												-348.96655	546.56982	1978.89832	10.58245	545.47998	1976.26624				25.96821	151.00014	2089.34790	
711	7.100																-153.81737	1579.11792	2097.58545																												-348.48193	546.98785	1978.15686	9.97562	545.90240	1977.32458				25.97452	150.98564	2089.38379	
712	7.110																-153.59784	1579.24548	2098.16528																												-348.17844	547.16925	1977.63403	9.16974	546.08514	1978.68665				25.97762	150.96132	2089.43481	
713	7.120																-153.33745	1578.88245	2098.80884																												-347.95853	547.16541	1977.33704	8.66057	545.95984	1979.43848				26.14956	150.89497	2089.42700	
714	7.130																-152.88272	1578.59094	2099.18579																												-347.81461	547.10089	1977.25012	8.54000	545.82709	1981.29492				26.91790	150.34648	2089.23486	
715	7.140																-152.46043	1578.54651	2099.96411																												-347.74762	547.03149	1977.32593	8.93121	545.59601	1984.01819				26.58520	149.90974	2090.04224	
716	7.150																-152.20161	1578.66809	2100.65796																												-347.43964	546.35718	1977.81519	9.33408	546.17169	1983.39795				26.66199	149.47800	2090.52319	
717	7.160																-152.03067	1578.67590	2101.63672																												-347.63425	545.47375	1979.89209	10.29193	546.33008	1984.00183				26.55278	149.22643	2090.90381	
718	7.170																-151.57211	1578.69434	2102.04785																												-347.09308	545.50336	1978.16309	11.42427	546.20593	1986.75586				26.21454	148.79913	2091.68628	
719	7.180																-150.91486	1578.53101	2102.39331																												-346.87662	545.39954	1978.45923	12.60022	545.77496	1988.04248				26.22381	148.74538	2091.80200	
